<mxfile host="app.diagrams.net" modified="2024-03-25T04:30:17.069Z" agent="Mozilla/5.0 (Windows NT 10.0; Win64; x64) AppleWebKit/537.36 (KHTML, like Gecko) Chrome/120.0.0.0 Safari/537.36" etag="tepyFmQdHXaFMjDBefpr" version="24.0.7" type="github">
  <diagram id="i7gGXflLBzXJQ1Onad0F" name="第 1 页">
    <mxGraphModel dx="2263" dy="862" grid="1" gridSize="10" guides="1" tooltips="1" connect="1" arrows="1" fold="1" page="1" pageScale="1" pageWidth="827" pageHeight="1169" math="0" shadow="0">
      <root>
        <mxCell id="0" />
        <mxCell id="1" parent="0" />
        <mxCell id="6hGsSX0xc1QD5v10wT_n-3" value="" style="whiteSpace=wrap;html=1;aspect=fixed;fillColor=#dae8fc;strokeColor=#6c8ebf;" parent="1" vertex="1">
          <mxGeometry x="-295" y="125" width="50" height="50" as="geometry" />
        </mxCell>
        <mxCell id="6hGsSX0xc1QD5v10wT_n-2" value="" style="whiteSpace=wrap;html=1;aspect=fixed;fillColor=#d5e8d4;strokeColor=#82b366;" parent="1" vertex="1">
          <mxGeometry x="-305" y="135" width="50" height="50" as="geometry" />
        </mxCell>
        <mxCell id="jxfBpQLGGbF27Udm01dI-3" style="edgeStyle=orthogonalEdgeStyle;rounded=0;orthogonalLoop=1;jettySize=auto;html=1;exitX=0.5;exitY=1;exitDx=0;exitDy=0;entryX=0.5;entryY=0;entryDx=0;entryDy=0;" parent="1" source="6hGsSX0xc1QD5v10wT_n-1" target="96Z2TRk2g2hctk14bLeR-9" edge="1">
          <mxGeometry relative="1" as="geometry" />
        </mxCell>
        <mxCell id="6hGsSX0xc1QD5v10wT_n-1" value="" style="whiteSpace=wrap;html=1;aspect=fixed;fillColor=#f8cecc;strokeColor=#b85450;" parent="1" vertex="1">
          <mxGeometry x="-315" y="145" width="50" height="50" as="geometry" />
        </mxCell>
        <mxCell id="jxfBpQLGGbF27Udm01dI-7" style="edgeStyle=orthogonalEdgeStyle;rounded=0;orthogonalLoop=1;jettySize=auto;html=1;exitX=0.5;exitY=1;exitDx=0;exitDy=0;" parent="1" source="96Z2TRk2g2hctk14bLeR-2" target="96Z2TRk2g2hctk14bLeR-11" edge="1">
          <mxGeometry relative="1" as="geometry" />
        </mxCell>
        <mxCell id="96Z2TRk2g2hctk14bLeR-2" value="&lt;font style=&quot;font-size: 18px;&quot;&gt;CBS&lt;/font&gt;" style="rounded=1;whiteSpace=wrap;html=1;fillColor=#dae8fc;strokeColor=#6c8ebf;" parent="1" vertex="1">
          <mxGeometry x="-350" y="445.01" width="120" height="40" as="geometry" />
        </mxCell>
        <mxCell id="jxfBpQLGGbF27Udm01dI-6" style="edgeStyle=orthogonalEdgeStyle;rounded=0;orthogonalLoop=1;jettySize=auto;html=1;exitX=0.5;exitY=1;exitDx=0;exitDy=0;entryX=0.5;entryY=0;entryDx=0;entryDy=0;" parent="1" source="96Z2TRk2g2hctk14bLeR-5" target="96Z2TRk2g2hctk14bLeR-2" edge="1">
          <mxGeometry relative="1" as="geometry" />
        </mxCell>
        <mxCell id="96Z2TRk2g2hctk14bLeR-5" value="&lt;font style=&quot;font-size: 18px;&quot;&gt;CBS&lt;/font&gt;" style="rounded=1;whiteSpace=wrap;html=1;fillColor=#dae8fc;strokeColor=#6c8ebf;" parent="1" vertex="1">
          <mxGeometry x="-350" y="368" width="120" height="40" as="geometry" />
        </mxCell>
        <mxCell id="jxfBpQLGGbF27Udm01dI-5" style="edgeStyle=orthogonalEdgeStyle;rounded=0;orthogonalLoop=1;jettySize=auto;html=1;exitX=0.5;exitY=1;exitDx=0;exitDy=0;entryX=0.5;entryY=0;entryDx=0;entryDy=0;" parent="1" source="96Z2TRk2g2hctk14bLeR-7" target="96Z2TRk2g2hctk14bLeR-5" edge="1">
          <mxGeometry relative="1" as="geometry" />
        </mxCell>
        <mxCell id="96Z2TRk2g2hctk14bLeR-7" value="&lt;font style=&quot;font-size: 18px;&quot;&gt;CBS&lt;/font&gt;" style="rounded=1;whiteSpace=wrap;html=1;fillColor=#dae8fc;strokeColor=#6c8ebf;" parent="1" vertex="1">
          <mxGeometry x="-350" y="296" width="120" height="40" as="geometry" />
        </mxCell>
        <mxCell id="jxfBpQLGGbF27Udm01dI-4" style="edgeStyle=orthogonalEdgeStyle;rounded=0;orthogonalLoop=1;jettySize=auto;html=1;exitX=0.5;exitY=1;exitDx=0;exitDy=0;entryX=0.5;entryY=0;entryDx=0;entryDy=0;" parent="1" source="96Z2TRk2g2hctk14bLeR-9" target="96Z2TRk2g2hctk14bLeR-7" edge="1">
          <mxGeometry relative="1" as="geometry" />
        </mxCell>
        <mxCell id="96Z2TRk2g2hctk14bLeR-9" value="&lt;font style=&quot;font-size: 18px;&quot;&gt;CBS&lt;/font&gt;" style="rounded=1;whiteSpace=wrap;html=1;fillColor=#dae8fc;strokeColor=#6c8ebf;" parent="1" vertex="1">
          <mxGeometry x="-350" y="225" width="120" height="40" as="geometry" />
        </mxCell>
        <mxCell id="jxfBpQLGGbF27Udm01dI-8" style="edgeStyle=orthogonalEdgeStyle;rounded=0;orthogonalLoop=1;jettySize=auto;html=1;exitX=0.5;exitY=1;exitDx=0;exitDy=0;entryX=0.5;entryY=1;entryDx=0;entryDy=0;" parent="1" source="96Z2TRk2g2hctk14bLeR-11" target="96Z2TRk2g2hctk14bLeR-17" edge="1">
          <mxGeometry relative="1" as="geometry">
            <Array as="points">
              <mxPoint x="-290" y="750" />
              <mxPoint x="-94" y="750" />
            </Array>
          </mxGeometry>
        </mxCell>
        <mxCell id="96Z2TRk2g2hctk14bLeR-11" value="&lt;font style=&quot;font-size: 18px;&quot;&gt;ELAN&lt;/font&gt;" style="rounded=1;whiteSpace=wrap;html=1;fillColor=#d5e8d4;strokeColor=#82b366;" parent="1" vertex="1">
          <mxGeometry x="-350" y="518.5" width="120" height="40" as="geometry" />
        </mxCell>
        <mxCell id="96Z2TRk2g2hctk14bLeR-20" value="" style="edgeStyle=orthogonalEdgeStyle;rounded=0;orthogonalLoop=1;jettySize=auto;html=1;" parent="1" source="96Z2TRk2g2hctk14bLeR-17" target="96Z2TRk2g2hctk14bLeR-19" edge="1">
          <mxGeometry relative="1" as="geometry" />
        </mxCell>
        <mxCell id="96Z2TRk2g2hctk14bLeR-17" value="&lt;font style=&quot;font-size: 18px;&quot;&gt;MPConv&lt;/font&gt;" style="rounded=1;whiteSpace=wrap;html=1;fillColor=#fad9d5;strokeColor=#ae4132;" parent="1" vertex="1">
          <mxGeometry x="-154" y="679" width="120" height="40" as="geometry" />
        </mxCell>
        <mxCell id="96Z2TRk2g2hctk14bLeR-284" value="" style="edgeStyle=orthogonalEdgeStyle;rounded=0;orthogonalLoop=1;jettySize=auto;html=1;fontSize=30;" parent="1" source="96Z2TRk2g2hctk14bLeR-19" target="96Z2TRk2g2hctk14bLeR-281" edge="1">
          <mxGeometry relative="1" as="geometry" />
        </mxCell>
        <mxCell id="slHn6gZgomVeKo_xS-rV-103" style="edgeStyle=orthogonalEdgeStyle;rounded=0;orthogonalLoop=1;jettySize=auto;html=1;exitX=0.5;exitY=0;exitDx=0;exitDy=0;entryX=0;entryY=0.5;entryDx=0;entryDy=0;" parent="1" source="96Z2TRk2g2hctk14bLeR-19" target="96Z2TRk2g2hctk14bLeR-43" edge="1">
          <mxGeometry relative="1" as="geometry">
            <Array as="points">
              <mxPoint x="-94" y="593" />
            </Array>
          </mxGeometry>
        </mxCell>
        <mxCell id="96Z2TRk2g2hctk14bLeR-19" value="&lt;font style=&quot;font-size: 18px;&quot;&gt;ELAN&lt;/font&gt;" style="rounded=1;whiteSpace=wrap;html=1;fillColor=#d5e8d4;strokeColor=#82b366;" parent="1" vertex="1">
          <mxGeometry x="-154" y="616.36" width="120" height="40" as="geometry" />
        </mxCell>
        <mxCell id="96Z2TRk2g2hctk14bLeR-36" style="edgeStyle=orthogonalEdgeStyle;rounded=0;orthogonalLoop=1;jettySize=auto;html=1;exitX=0.5;exitY=0;exitDx=0;exitDy=0;entryX=0;entryY=0.5;entryDx=0;entryDy=0;" parent="1" source="96Z2TRk2g2hctk14bLeR-21" target="96Z2TRk2g2hctk14bLeR-40" edge="1">
          <mxGeometry relative="1" as="geometry">
            <mxPoint x="31" y="410" as="targetPoint" />
          </mxGeometry>
        </mxCell>
        <mxCell id="96Z2TRk2g2hctk14bLeR-41" style="edgeStyle=orthogonalEdgeStyle;rounded=0;orthogonalLoop=1;jettySize=auto;html=1;exitX=0.5;exitY=0;exitDx=0;exitDy=0;entryX=0.5;entryY=1;entryDx=0;entryDy=0;" parent="1" source="96Z2TRk2g2hctk14bLeR-21" target="96Z2TRk2g2hctk14bLeR-23" edge="1">
          <mxGeometry relative="1" as="geometry" />
        </mxCell>
        <mxCell id="96Z2TRk2g2hctk14bLeR-21" value="&lt;font style=&quot;font-size: 18px;&quot;&gt;ELAN&lt;/font&gt;" style="rounded=1;whiteSpace=wrap;html=1;fillColor=#d5e8d4;strokeColor=#82b366;" parent="1" vertex="1">
          <mxGeometry x="-154" y="398" width="120" height="40" as="geometry" />
        </mxCell>
        <mxCell id="96Z2TRk2g2hctk14bLeR-26" style="edgeStyle=orthogonalEdgeStyle;rounded=0;orthogonalLoop=1;jettySize=auto;html=1;exitX=0.5;exitY=0;exitDx=0;exitDy=0;" parent="1" source="96Z2TRk2g2hctk14bLeR-23" target="96Z2TRk2g2hctk14bLeR-25" edge="1">
          <mxGeometry relative="1" as="geometry" />
        </mxCell>
        <mxCell id="96Z2TRk2g2hctk14bLeR-23" value="&lt;font style=&quot;font-size: 18px;&quot;&gt;MPConv&lt;/font&gt;" style="rounded=1;whiteSpace=wrap;html=1;fillColor=#fad9d5;strokeColor=#ae4132;" parent="1" vertex="1">
          <mxGeometry x="-154" y="280" width="120" height="40" as="geometry" />
        </mxCell>
        <mxCell id="96Z2TRk2g2hctk14bLeR-29" style="edgeStyle=orthogonalEdgeStyle;rounded=0;orthogonalLoop=1;jettySize=auto;html=1;exitX=0.5;exitY=0;exitDx=0;exitDy=0;entryX=0.5;entryY=0;entryDx=0;entryDy=0;" parent="1" source="96Z2TRk2g2hctk14bLeR-25" target="96Z2TRk2g2hctk14bLeR-28" edge="1">
          <mxGeometry relative="1" as="geometry">
            <mxPoint x="121" y="260" as="targetPoint" />
            <Array as="points">
              <mxPoint x="-94" y="130" />
              <mxPoint x="121" y="130" />
            </Array>
          </mxGeometry>
        </mxCell>
        <mxCell id="96Z2TRk2g2hctk14bLeR-25" value="&lt;font style=&quot;font-size: 18px;&quot;&gt;ELAN&lt;/font&gt;" style="rounded=1;whiteSpace=wrap;html=1;fillColor=#d5e8d4;strokeColor=#82b366;" parent="1" vertex="1">
          <mxGeometry x="-154" y="210" width="120" height="40" as="geometry" />
        </mxCell>
        <mxCell id="96Z2TRk2g2hctk14bLeR-31" style="edgeStyle=orthogonalEdgeStyle;rounded=0;orthogonalLoop=1;jettySize=auto;html=1;exitX=0.5;exitY=1;exitDx=0;exitDy=0;" parent="1" source="96Z2TRk2g2hctk14bLeR-28" target="96Z2TRk2g2hctk14bLeR-30" edge="1">
          <mxGeometry relative="1" as="geometry" />
        </mxCell>
        <mxCell id="96Z2TRk2g2hctk14bLeR-73" style="edgeStyle=orthogonalEdgeStyle;rounded=0;orthogonalLoop=1;jettySize=auto;html=1;exitX=0.5;exitY=0;exitDx=0;exitDy=0;startArrow=none;entryX=0;entryY=0.5;entryDx=0;entryDy=0;" parent="1" target="96Z2TRk2g2hctk14bLeR-71" edge="1">
          <mxGeometry relative="1" as="geometry">
            <Array as="points">
              <mxPoint x="121" y="210" />
              <mxPoint x="220" y="210" />
              <mxPoint x="220" y="275" />
            </Array>
            <mxPoint x="121" y="231.47999999999988" as="sourcePoint" />
            <mxPoint x="260" y="260" as="targetPoint" />
          </mxGeometry>
        </mxCell>
        <mxCell id="96Z2TRk2g2hctk14bLeR-28" value="&lt;font style=&quot;font-size: 18px;&quot;&gt;SPPCSPC&lt;/font&gt;" style="rounded=1;whiteSpace=wrap;html=1;fillColor=#ffff88;strokeColor=#36393d;" parent="1" vertex="1">
          <mxGeometry x="55.25" y="163" width="130.5" height="40" as="geometry" />
        </mxCell>
        <mxCell id="96Z2TRk2g2hctk14bLeR-30" value="&lt;font style=&quot;font-size: 18px;&quot;&gt;CBS&lt;/font&gt;" style="rounded=1;whiteSpace=wrap;html=1;fillColor=#dae8fc;strokeColor=#6c8ebf;" parent="1" vertex="1">
          <mxGeometry x="60.5" y="225" width="120" height="40" as="geometry" />
        </mxCell>
        <mxCell id="xJaOeK9cvCY9b7bzzYs9-2" style="edgeStyle=orthogonalEdgeStyle;rounded=0;orthogonalLoop=1;jettySize=auto;html=1;exitX=0.5;exitY=1;exitDx=0;exitDy=0;entryX=0.5;entryY=0;entryDx=0;entryDy=0;" parent="1" source="96Z2TRk2g2hctk14bLeR-32" target="96Z2TRk2g2hctk14bLeR-37" edge="1">
          <mxGeometry relative="1" as="geometry" />
        </mxCell>
        <mxCell id="96Z2TRk2g2hctk14bLeR-32" value="&lt;font style=&quot;font-size: 18px;&quot;&gt;UPSample&lt;/font&gt;" style="rounded=1;whiteSpace=wrap;html=1;fillColor=#99CCFF;" parent="1" vertex="1">
          <mxGeometry x="60.5" y="284.5" width="120" height="40" as="geometry" />
        </mxCell>
        <mxCell id="xJaOeK9cvCY9b7bzzYs9-3" style="edgeStyle=orthogonalEdgeStyle;rounded=0;orthogonalLoop=1;jettySize=auto;html=1;exitX=0.5;exitY=1;exitDx=0;exitDy=0;entryX=0.5;entryY=0;entryDx=0;entryDy=0;" parent="1" source="96Z2TRk2g2hctk14bLeR-37" target="96Z2TRk2g2hctk14bLeR-49" edge="1">
          <mxGeometry relative="1" as="geometry" />
        </mxCell>
        <mxCell id="96Z2TRk2g2hctk14bLeR-37" value="&lt;font style=&quot;font-size: 18px;&quot;&gt;cat&lt;/font&gt;" style="ellipse;whiteSpace=wrap;html=1;rounded=1;fillColor=#fff2cc;strokeColor=#d6b656;" parent="1" vertex="1">
          <mxGeometry x="100.5" y="340" width="40" height="40" as="geometry" />
        </mxCell>
        <mxCell id="slHn6gZgomVeKo_xS-rV-101" style="edgeStyle=orthogonalEdgeStyle;rounded=0;orthogonalLoop=1;jettySize=auto;html=1;exitX=1;exitY=0.5;exitDx=0;exitDy=0;" parent="1" source="96Z2TRk2g2hctk14bLeR-40" target="96Z2TRk2g2hctk14bLeR-37" edge="1">
          <mxGeometry relative="1" as="geometry" />
        </mxCell>
        <mxCell id="96Z2TRk2g2hctk14bLeR-40" value="&lt;font style=&quot;font-size: 18px;&quot;&gt;CBS&lt;/font&gt;" style="rounded=1;whiteSpace=wrap;html=1;fillColor=#dae8fc;strokeColor=#6c8ebf;" parent="1" vertex="1">
          <mxGeometry x="-40" y="340" width="110" height="40" as="geometry" />
        </mxCell>
        <mxCell id="slHn6gZgomVeKo_xS-rV-106" style="edgeStyle=orthogonalEdgeStyle;rounded=0;orthogonalLoop=1;jettySize=auto;html=1;exitX=1;exitY=0.5;exitDx=0;exitDy=0;entryX=0;entryY=0.5;entryDx=0;entryDy=0;" parent="1" source="96Z2TRk2g2hctk14bLeR-43" target="96Z2TRk2g2hctk14bLeR-48" edge="1">
          <mxGeometry relative="1" as="geometry" />
        </mxCell>
        <mxCell id="96Z2TRk2g2hctk14bLeR-43" value="&lt;font style=&quot;font-size: 18px;&quot;&gt;CBS&lt;/font&gt;" style="rounded=1;whiteSpace=wrap;html=1;fillColor=#dae8fc;strokeColor=#6c8ebf;arcSize=21;" parent="1" vertex="1">
          <mxGeometry x="-40" y="573" width="110" height="40" as="geometry" />
        </mxCell>
        <mxCell id="96Z2TRk2g2hctk14bLeR-67" value="" style="edgeStyle=orthogonalEdgeStyle;rounded=0;orthogonalLoop=1;jettySize=auto;html=1;" parent="1" source="96Z2TRk2g2hctk14bLeR-48" target="96Z2TRk2g2hctk14bLeR-66" edge="1">
          <mxGeometry relative="1" as="geometry" />
        </mxCell>
        <mxCell id="96Z2TRk2g2hctk14bLeR-48" value="&lt;font style=&quot;font-size: 18px;&quot;&gt;cat&lt;/font&gt;" style="ellipse;whiteSpace=wrap;html=1;rounded=1;fillColor=#fff2cc;strokeColor=#d6b656;" parent="1" vertex="1">
          <mxGeometry x="100.75" y="573" width="40" height="40" as="geometry" />
        </mxCell>
        <mxCell id="96Z2TRk2g2hctk14bLeR-49" value="&lt;font style=&quot;font-size: 18px;&quot;&gt;ELAN-H&lt;/font&gt;" style="rounded=1;whiteSpace=wrap;html=1;fillColor=#cdeb8b;strokeColor=#36393d;" parent="1" vertex="1">
          <mxGeometry x="61.5" y="400.75" width="120" height="40" as="geometry" />
        </mxCell>
        <mxCell id="96Z2TRk2g2hctk14bLeR-91" value="" style="edgeStyle=orthogonalEdgeStyle;rounded=0;orthogonalLoop=1;jettySize=auto;html=1;exitX=0.5;exitY=1;exitDx=0;exitDy=0;entryX=0;entryY=0.5;entryDx=0;entryDy=0;" parent="1" source="96Z2TRk2g2hctk14bLeR-49" target="96Z2TRk2g2hctk14bLeR-89" edge="1">
          <mxGeometry relative="1" as="geometry">
            <mxPoint x="240" y="520" as="targetPoint" />
            <Array as="points">
              <mxPoint x="122" y="450" />
              <mxPoint x="220" y="450" />
              <mxPoint x="220" y="503" />
            </Array>
          </mxGeometry>
        </mxCell>
        <mxCell id="96Z2TRk2g2hctk14bLeR-54" value="&lt;font style=&quot;font-size: 18px;&quot;&gt;CBS&lt;/font&gt;" style="rounded=1;whiteSpace=wrap;html=1;fillColor=#dae8fc;strokeColor=#6c8ebf;" parent="1" vertex="1">
          <mxGeometry x="61.5" y="457.5" width="120" height="40" as="geometry" />
        </mxCell>
        <mxCell id="96Z2TRk2g2hctk14bLeR-56" style="edgeStyle=orthogonalEdgeStyle;rounded=0;orthogonalLoop=1;jettySize=auto;html=1;exitX=0.5;exitY=1;exitDx=0;exitDy=0;entryX=0.5;entryY=0;entryDx=0;entryDy=0;" parent="1" source="96Z2TRk2g2hctk14bLeR-49" target="96Z2TRk2g2hctk14bLeR-54" edge="1">
          <mxGeometry relative="1" as="geometry">
            <mxPoint x="121" y="445" as="sourcePoint" />
          </mxGeometry>
        </mxCell>
        <mxCell id="a6rZ2WNsQKCH5PQ9cZ_o-20" style="edgeStyle=orthogonalEdgeStyle;rounded=0;orthogonalLoop=1;jettySize=auto;html=1;exitX=0.5;exitY=1;exitDx=0;exitDy=0;entryX=0.5;entryY=0;entryDx=0;entryDy=0;fontFamily=Tahoma;fontSize=6;" parent="1" source="96Z2TRk2g2hctk14bLeR-60" target="96Z2TRk2g2hctk14bLeR-48" edge="1">
          <mxGeometry relative="1" as="geometry" />
        </mxCell>
        <mxCell id="96Z2TRk2g2hctk14bLeR-60" value="&lt;font style=&quot;font-size: 18px;&quot;&gt;UPsample&lt;/font&gt;" style="rounded=1;whiteSpace=wrap;html=1;fillColor=#99CCFF;" parent="1" vertex="1">
          <mxGeometry x="61.5" y="514.99" width="119" height="40" as="geometry" />
        </mxCell>
        <mxCell id="96Z2TRk2g2hctk14bLeR-66" value="&lt;font style=&quot;font-size: 18px;&quot;&gt;ELAN-H&lt;/font&gt;" style="whiteSpace=wrap;html=1;rounded=1;fillColor=#cdeb8b;strokeColor=#36393d;" parent="1" vertex="1">
          <mxGeometry x="60.5" y="679" width="120" height="40" as="geometry" />
        </mxCell>
        <mxCell id="96Z2TRk2g2hctk14bLeR-93" style="edgeStyle=orthogonalEdgeStyle;rounded=0;orthogonalLoop=1;jettySize=auto;html=1;entryX=0.5;entryY=1;entryDx=0;entryDy=0;exitX=1;exitY=0.5;exitDx=0;exitDy=0;" parent="1" source="96Z2TRk2g2hctk14bLeR-66" target="96Z2TRk2g2hctk14bLeR-83" edge="1">
          <mxGeometry relative="1" as="geometry">
            <mxPoint x="220" y="690" as="sourcePoint" />
          </mxGeometry>
        </mxCell>
        <mxCell id="96Z2TRk2g2hctk14bLeR-105" style="edgeStyle=orthogonalEdgeStyle;rounded=0;orthogonalLoop=1;jettySize=auto;html=1;entryX=0;entryY=0.5;entryDx=0;entryDy=0;exitX=1;exitY=0.5;exitDx=0;exitDy=0;" parent="1" source="96Z2TRk2g2hctk14bLeR-66" target="96Z2TRk2g2hctk14bLeR-101" edge="1">
          <mxGeometry relative="1" as="geometry">
            <mxPoint x="210" y="650" as="sourcePoint" />
          </mxGeometry>
        </mxCell>
        <mxCell id="96Z2TRk2g2hctk14bLeR-96" style="edgeStyle=orthogonalEdgeStyle;rounded=0;orthogonalLoop=1;jettySize=auto;html=1;exitX=0.5;exitY=0;exitDx=0;exitDy=0;entryX=0.5;entryY=1;entryDx=0;entryDy=0;" parent="1" source="96Z2TRk2g2hctk14bLeR-71" target="96Z2TRk2g2hctk14bLeR-94" edge="1">
          <mxGeometry relative="1" as="geometry" />
        </mxCell>
        <mxCell id="96Z2TRk2g2hctk14bLeR-71" value="&lt;font style=&quot;font-size: 18px;&quot;&gt;cat&lt;/font&gt;" style="ellipse;whiteSpace=wrap;html=1;rounded=1;fillColor=#fff2cc;strokeColor=#d6b656;" parent="1" vertex="1">
          <mxGeometry x="276.40000000000003" y="255" width="40" height="40" as="geometry" />
        </mxCell>
        <mxCell id="96Z2TRk2g2hctk14bLeR-84" value="" style="edgeStyle=orthogonalEdgeStyle;rounded=0;orthogonalLoop=1;jettySize=auto;html=1;entryX=0.5;entryY=1;entryDx=0;entryDy=0;" parent="1" source="96Z2TRk2g2hctk14bLeR-81" target="96Z2TRk2g2hctk14bLeR-71" edge="1">
          <mxGeometry relative="1" as="geometry">
            <mxPoint x="296" y="320" as="targetPoint" />
          </mxGeometry>
        </mxCell>
        <mxCell id="96Z2TRk2g2hctk14bLeR-81" value="&lt;font style=&quot;font-size: 18px;&quot;&gt;MPConv&lt;/font&gt;" style="whiteSpace=wrap;html=1;rounded=1;fillColor=#fad9d5;strokeColor=#ae4132;" parent="1" vertex="1">
          <mxGeometry x="237.5" y="318" width="120" height="40" as="geometry" />
        </mxCell>
        <mxCell id="96Z2TRk2g2hctk14bLeR-88" value="" style="edgeStyle=orthogonalEdgeStyle;rounded=0;orthogonalLoop=1;jettySize=auto;html=1;" parent="1" source="96Z2TRk2g2hctk14bLeR-82" target="96Z2TRk2g2hctk14bLeR-81" edge="1">
          <mxGeometry relative="1" as="geometry" />
        </mxCell>
        <mxCell id="slHn6gZgomVeKo_xS-rV-91" style="edgeStyle=orthogonalEdgeStyle;rounded=0;orthogonalLoop=1;jettySize=auto;html=1;exitX=1;exitY=0.5;exitDx=0;exitDy=0;entryX=0;entryY=0.5;entryDx=0;entryDy=0;" parent="1" source="96Z2TRk2g2hctk14bLeR-82" target="96Z2TRk2g2hctk14bLeR-100" edge="1">
          <mxGeometry relative="1" as="geometry" />
        </mxCell>
        <mxCell id="96Z2TRk2g2hctk14bLeR-82" value="&lt;font style=&quot;font-size: 18px;&quot;&gt;ELAN-H&lt;/font&gt;" style="whiteSpace=wrap;html=1;rounded=1;fillColor=#cdeb8b;strokeColor=#36393d;" parent="1" vertex="1">
          <mxGeometry x="237.5" y="402" width="120" height="40" as="geometry" />
        </mxCell>
        <mxCell id="slHn6gZgomVeKo_xS-rV-107" style="edgeStyle=orthogonalEdgeStyle;rounded=0;orthogonalLoop=1;jettySize=auto;html=1;exitX=0.5;exitY=0;exitDx=0;exitDy=0;entryX=0.5;entryY=1;entryDx=0;entryDy=0;" parent="1" source="96Z2TRk2g2hctk14bLeR-83" target="96Z2TRk2g2hctk14bLeR-89" edge="1">
          <mxGeometry relative="1" as="geometry" />
        </mxCell>
        <mxCell id="96Z2TRk2g2hctk14bLeR-83" value="&lt;font style=&quot;font-size: 18px;&quot;&gt;MPConv&lt;/font&gt;" style="whiteSpace=wrap;html=1;rounded=1;fillColor=#fad9d5;strokeColor=#ae4132;" parent="1" vertex="1">
          <mxGeometry x="237.5" y="600" width="120" height="40" as="geometry" />
        </mxCell>
        <mxCell id="96Z2TRk2g2hctk14bLeR-90" value="" style="edgeStyle=orthogonalEdgeStyle;rounded=0;orthogonalLoop=1;jettySize=auto;html=1;" parent="1" source="96Z2TRk2g2hctk14bLeR-89" target="96Z2TRk2g2hctk14bLeR-82" edge="1">
          <mxGeometry relative="1" as="geometry" />
        </mxCell>
        <mxCell id="96Z2TRk2g2hctk14bLeR-89" value="&lt;font style=&quot;font-size: 18px;&quot;&gt;cat&lt;/font&gt;" style="ellipse;whiteSpace=wrap;html=1;rounded=1;fillColor=#fff2cc;strokeColor=#d6b656;" parent="1" vertex="1">
          <mxGeometry x="277.5" y="483" width="40" height="40" as="geometry" />
        </mxCell>
        <mxCell id="96Z2TRk2g2hctk14bLeR-97" style="edgeStyle=orthogonalEdgeStyle;rounded=0;orthogonalLoop=1;jettySize=auto;html=1;exitX=0.5;exitY=0;exitDx=0;exitDy=0;entryX=0.5;entryY=1;entryDx=0;entryDy=0;" parent="1" source="96Z2TRk2g2hctk14bLeR-94" target="96Z2TRk2g2hctk14bLeR-95" edge="1">
          <mxGeometry relative="1" as="geometry">
            <mxPoint x="296" y="175" as="sourcePoint" />
          </mxGeometry>
        </mxCell>
        <mxCell id="96Z2TRk2g2hctk14bLeR-94" value="&lt;font style=&quot;font-size: 18px;&quot;&gt;ELAN-H&lt;/font&gt;" style="rounded=1;whiteSpace=wrap;html=1;fillColor=#cdeb8b;strokeColor=#36393d;" parent="1" vertex="1">
          <mxGeometry x="236" y="198.5" width="120" height="40" as="geometry" />
        </mxCell>
        <mxCell id="96Z2TRk2g2hctk14bLeR-99" style="edgeStyle=orthogonalEdgeStyle;rounded=0;orthogonalLoop=1;jettySize=auto;html=1;exitX=1;exitY=0.5;exitDx=0;exitDy=0;entryX=0;entryY=0.5;entryDx=0;entryDy=0;" parent="1" source="96Z2TRk2g2hctk14bLeR-95" target="96Z2TRk2g2hctk14bLeR-98" edge="1">
          <mxGeometry relative="1" as="geometry" />
        </mxCell>
        <mxCell id="96Z2TRk2g2hctk14bLeR-95" value="&lt;font style=&quot;font-size: 18px;&quot;&gt;CBS&lt;/font&gt;" style="rounded=1;whiteSpace=wrap;html=1;fillColor=#dae8fc;strokeColor=#6c8ebf;" parent="1" vertex="1">
          <mxGeometry x="237.5" y="130" width="117" height="40" as="geometry" />
        </mxCell>
        <mxCell id="96Z2TRk2g2hctk14bLeR-98" value="&lt;font style=&quot;font-size: 18px;&quot;&gt;REP&lt;/font&gt;" style="rounded=1;whiteSpace=wrap;html=1;fillColor=#fad7ac;strokeColor=#b46504;" parent="1" vertex="1">
          <mxGeometry x="421" y="135" width="59" height="30" as="geometry" />
        </mxCell>
        <mxCell id="96Z2TRk2g2hctk14bLeR-100" value="&lt;font style=&quot;font-size: 18px;&quot;&gt;REP&lt;/font&gt;" style="rounded=1;whiteSpace=wrap;html=1;fillColor=#fad7ac;strokeColor=#b46504;" parent="1" vertex="1">
          <mxGeometry x="422" y="408" width="59" height="28" as="geometry" />
        </mxCell>
        <mxCell id="96Z2TRk2g2hctk14bLeR-101" value="&lt;font style=&quot;font-size: 18px;&quot;&gt;REP&lt;/font&gt;" style="rounded=1;whiteSpace=wrap;html=1;fillColor=#fad7ac;strokeColor=#b46504;" parent="1" vertex="1">
          <mxGeometry x="421" y="684" width="60" height="30" as="geometry" />
        </mxCell>
        <mxCell id="96Z2TRk2g2hctk14bLeR-141" value="" style="edgeStyle=orthogonalEdgeStyle;rounded=0;orthogonalLoop=1;jettySize=auto;html=1;exitX=1;exitY=0.5;exitDx=0;exitDy=0;" parent="1" source="96Z2TRk2g2hctk14bLeR-98" target="96Z2TRk2g2hctk14bLeR-117" edge="1">
          <mxGeometry relative="1" as="geometry">
            <mxPoint x="531" y="150.0000000000001" as="sourcePoint" />
          </mxGeometry>
        </mxCell>
        <mxCell id="96Z2TRk2g2hctk14bLeR-119" value="" style="edgeStyle=orthogonalEdgeStyle;rounded=0;orthogonalLoop=1;jettySize=auto;html=1;exitX=1;exitY=0.5;exitDx=0;exitDy=0;" parent="1" source="96Z2TRk2g2hctk14bLeR-100" target="96Z2TRk2g2hctk14bLeR-118" edge="1">
          <mxGeometry relative="1" as="geometry">
            <mxPoint x="531" y="396" as="sourcePoint" />
          </mxGeometry>
        </mxCell>
        <mxCell id="96Z2TRk2g2hctk14bLeR-121" value="" style="edgeStyle=orthogonalEdgeStyle;rounded=0;orthogonalLoop=1;jettySize=auto;html=1;exitX=1;exitY=0.5;exitDx=0;exitDy=0;" parent="1" source="96Z2TRk2g2hctk14bLeR-101" target="96Z2TRk2g2hctk14bLeR-120" edge="1">
          <mxGeometry relative="1" as="geometry">
            <mxPoint x="531" y="670" as="sourcePoint" />
          </mxGeometry>
        </mxCell>
        <mxCell id="96Z2TRk2g2hctk14bLeR-117" value="" style="shape=cube;whiteSpace=wrap;html=1;boundedLbl=1;backgroundOutline=1;darkOpacity=0.05;darkOpacity2=0.1;size=10;fontStyle=1;fillColor=#f8cecc;strokeColor=#b85450;" parent="1" vertex="1">
          <mxGeometry x="561" y="125" width="50" height="50" as="geometry" />
        </mxCell>
        <mxCell id="96Z2TRk2g2hctk14bLeR-118" value="" style="shape=cube;whiteSpace=wrap;html=1;boundedLbl=1;backgroundOutline=1;darkOpacity=0.05;darkOpacity2=0.1;size=10;fillColor=#d5e8d4;strokeColor=#82b366;" parent="1" vertex="1">
          <mxGeometry x="568" y="397.48" width="50" height="50" as="geometry" />
        </mxCell>
        <mxCell id="96Z2TRk2g2hctk14bLeR-120" value="" style="shape=cube;whiteSpace=wrap;html=1;boundedLbl=1;backgroundOutline=1;darkOpacity=0.05;darkOpacity2=0.1;size=10;fillColor=#dae8fc;strokeColor=#6c8ebf;" parent="1" vertex="1">
          <mxGeometry x="569" y="674.5" width="50" height="50" as="geometry" />
        </mxCell>
        <mxCell id="96Z2TRk2g2hctk14bLeR-285" value="" style="edgeStyle=orthogonalEdgeStyle;rounded=0;orthogonalLoop=1;jettySize=auto;html=1;fontSize=30;" parent="1" source="96Z2TRk2g2hctk14bLeR-281" target="96Z2TRk2g2hctk14bLeR-21" edge="1">
          <mxGeometry relative="1" as="geometry" />
        </mxCell>
        <mxCell id="96Z2TRk2g2hctk14bLeR-281" value="&lt;font style=&quot;font-size: 18px;&quot;&gt;MPConv&lt;/font&gt;" style="rounded=1;whiteSpace=wrap;html=1;fillColor=#fad9d5;strokeColor=#ae4132;" parent="1" vertex="1">
          <mxGeometry x="-154" y="483" width="120" height="40" as="geometry" />
        </mxCell>
        <mxCell id="96Z2TRk2g2hctk14bLeR-370" value="&lt;font style=&quot;font-size: 14px;&quot;&gt;20*20*85&lt;/font&gt;" style="text;html=1;strokeColor=none;fillColor=none;align=center;verticalAlign=middle;whiteSpace=wrap;rounded=0;strokeWidth=1;fontSize=12;" parent="1" vertex="1">
          <mxGeometry x="562" y="173" width="56" height="30" as="geometry" />
        </mxCell>
        <mxCell id="96Z2TRk2g2hctk14bLeR-371" value="&lt;font style=&quot;font-size: 14px;&quot;&gt;40*40*85&lt;/font&gt;" style="text;html=1;strokeColor=none;fillColor=none;align=center;verticalAlign=middle;whiteSpace=wrap;rounded=0;strokeWidth=1;fontSize=12;" parent="1" vertex="1">
          <mxGeometry x="565" y="448" width="56" height="30" as="geometry" />
        </mxCell>
        <mxCell id="96Z2TRk2g2hctk14bLeR-372" value="&lt;font style=&quot;font-size: 14px;&quot;&gt;80*80*85&lt;/font&gt;" style="text;html=1;strokeColor=none;fillColor=none;align=center;verticalAlign=middle;whiteSpace=wrap;rounded=0;strokeWidth=1;fontSize=12;" parent="1" vertex="1">
          <mxGeometry x="569" y="723.5" width="56" height="30" as="geometry" />
        </mxCell>
        <mxCell id="a6rZ2WNsQKCH5PQ9cZ_o-12" style="edgeStyle=orthogonalEdgeStyle;rounded=0;orthogonalLoop=1;jettySize=auto;html=1;exitX=0.5;exitY=1;exitDx=0;exitDy=0;entryX=0.5;entryY=0;entryDx=0;entryDy=0;fontFamily=Tahoma;fontSize=6;" parent="1" source="96Z2TRk2g2hctk14bLeR-54" target="96Z2TRk2g2hctk14bLeR-60" edge="1">
          <mxGeometry relative="1" as="geometry">
            <mxPoint x="120" y="506" as="sourcePoint" />
          </mxGeometry>
        </mxCell>
        <mxCell id="a6rZ2WNsQKCH5PQ9cZ_o-15" style="edgeStyle=orthogonalEdgeStyle;rounded=0;orthogonalLoop=1;jettySize=auto;html=1;exitX=0.5;exitY=1;exitDx=0;exitDy=0;entryX=0.5;entryY=0;entryDx=0;entryDy=0;fontFamily=Tahoma;fontSize=6;" parent="1" source="96Z2TRk2g2hctk14bLeR-30" target="96Z2TRk2g2hctk14bLeR-32" edge="1">
          <mxGeometry relative="1" as="geometry">
            <mxPoint x="120" y="287" as="sourcePoint" />
          </mxGeometry>
        </mxCell>
        <mxCell id="a6rZ2WNsQKCH5PQ9cZ_o-16" style="edgeStyle=orthogonalEdgeStyle;rounded=0;orthogonalLoop=1;jettySize=auto;html=1;exitX=0.5;exitY=1;exitDx=0;exitDy=0;fontFamily=Tahoma;fontSize=6;" parent="1" edge="1">
          <mxGeometry relative="1" as="geometry">
            <mxPoint x="170" y="290.5" as="sourcePoint" />
            <mxPoint x="170" y="290.5" as="targetPoint" />
          </mxGeometry>
        </mxCell>
        <mxCell id="5XkC3W11-l9lQxUZfNsb-1" value="&lt;p style=&quot;line-height: 100%;&quot;&gt;&lt;font style=&quot;font-size: 24px;&quot;&gt;P3/8&lt;/font&gt;&lt;/p&gt;" style="rounded=0;whiteSpace=wrap;html=1;" vertex="1" parent="1">
          <mxGeometry x="-30" y="677.5" width="70" height="41.5" as="geometry" />
        </mxCell>
        <mxCell id="5XkC3W11-l9lQxUZfNsb-2" value="&lt;p style=&quot;line-height: 100%;&quot;&gt;&lt;font style=&quot;font-size: 24px;&quot;&gt;P4/16&lt;/font&gt;&lt;/p&gt;" style="rounded=0;whiteSpace=wrap;html=1;" vertex="1" parent="1">
          <mxGeometry x="-30" y="482.25" width="70" height="41.5" as="geometry" />
        </mxCell>
        <mxCell id="5XkC3W11-l9lQxUZfNsb-3" value="&lt;p style=&quot;line-height: 100%;&quot;&gt;&lt;font style=&quot;font-size: 24px;&quot;&gt;P5/32&lt;/font&gt;&lt;/p&gt;" style="rounded=0;whiteSpace=wrap;html=1;" vertex="1" parent="1">
          <mxGeometry x="-30" y="279.25" width="70" height="41.5" as="geometry" />
        </mxCell>
      </root>
    </mxGraphModel>
  </diagram>
</mxfile>
